<?xml version="1.0" encoding="utf-8"?>
<!-- Generator: Adobe Illustrator 19.1.0, SVG Export Plug-In . SVG Version: 6.00 Build 0)  -->
<svg version="1.1" id="Layer_1" xmlns="http://www.w3.org/2000/svg" xmlns:xlink="http://www.w3.org/1999/xlink" x="0px" y="0px"
	 viewBox="0 0 1123.304 378" style="enable-background:new 0 0 1123.304 378;" xml:space="preserve">
<style type="text/css">
	.st0{fill:#303333;}
	.st1{fill:#242626;}
	.st2{fill:#464A4E;}
	.st3{fill:#486FAF;}
	.st4{fill:#BD4545;}
	.st5{fill:#287D3E;}
	.st6{fill:#8F8F8E;}
	.st7{opacity:0.1;}
	.st8{clip-path:url(#SVGID_2_);fill:#010101;}
	.st9{clip-path:url(#SVGID_4_);fill:#010101;}
	.st10{clip-path:url(#SVGID_6_);fill:#010101;}
	.st11{clip-path:url(#SVGID_8_);fill:#010101;}
</style>
<g>
	<g>
		<path class="st0" d="M234,279c0,24.853-20.147,45-45,45s-45-20.147-45-45V99c0-24.853,20.147-45,45-45s45,20.147,45,45V279z"/>
		<path class="st1" d="M157.18,84.541l-11.82,11.82c-0.885,3.521-1.36,7.205-1.36,11V225l76.82-76.819
			c17.573-17.573,17.573-46.065,0-63.64C203.246,66.967,174.754,66.967,157.18,84.541"/>
		<path class="st2" d="M130.82,220.82c-17.574,17.574-46.066,17.574-63.64,0c-17.573-17.574-17.573-46.066,0-63.641l90-90
			c17.574-17.572,46.066-17.572,63.64,0c17.574,17.574,17.574,46.066,0,63.641L130.82,220.82z"/>
		<path class="st2" d="M220.82,310.82c-17.574,17.574-46.066,17.574-63.64,0c-17.573-17.574-17.573-46.066,0-63.641l90-90
			c17.574-17.572,46.066-17.572,63.64,0c17.574,17.574,17.574,46.066,0,63.641L220.82,310.82z"/>
		<path class="st3" d="M225,99c0,19.882-16.118,36-36,36c-19.882,0-36-16.118-36-36c0-19.882,16.118-36,36-36
			C208.882,63,225,79.118,225,99"/>
		<path class="st4" d="M315,189c0,19.882-16.118,36-36,36c-19.882,0-36-16.118-36-36c0-19.882,16.118-36,36-36
			C298.882,153,315,169.118,315,189"/>
		<path class="st5" d="M135,189c0,19.882-16.118,36-36,36c-19.882,0-36-16.118-36-36c0-19.882,16.118-36,36-36
			C118.882,153,135,169.118,135,189"/>
		<path class="st6" d="M225,279c0,19.882-16.118,36-36,36c-19.882,0-36-16.118-36-36c0-19.882,16.118-36,36-36
			C208.882,243,225,259.118,225,279"/>
		<path class="st2" d="M189,18c94.441,0,171,76.56,171,171c0,94.441-76.559,171-171,171S18,283.441,18,189
			C18,94.56,94.559,18,189,18 M189,0c-25.507,0-50.26,5-73.573,14.86c-22.508,9.52-42.719,23.144-60.07,40.497
			C38.005,72.708,24.38,92.919,14.86,115.428C5,138.74,0,163.493,0,189c0,25.507,5,50.26,14.86,73.573
			c9.52,22.508,23.145,42.719,40.497,60.07c17.351,17.352,37.562,30.977,60.07,40.497C138.74,373,163.493,378,189,378
			c25.507,0,50.26-5,73.573-14.859c22.508-9.521,42.719-23.146,60.07-40.497c17.352-17.352,30.977-37.563,40.497-60.07
			C373,239.26,378,214.507,378,189c0-25.507-5-50.26-14.86-73.572c-9.52-22.509-23.145-42.72-40.497-60.07
			c-17.351-17.353-37.562-30.978-60.07-40.497C239.26,5,214.507,0,189,0"/>
		<g class="st7">
			<g>
				<defs>
					<rect id="SVGID_1_" x="159.449" y="69.449" width="65.551" height="65.551"/>
				</defs>
				<clipPath id="SVGID_2_">
					<use xlink:href="#SVGID_1_"  style="overflow:visible;"/>
				</clipPath>
				<path class="st8" d="M209.551,69.449C213.612,75.277,216,82.358,216,90c0,19.883-16.118,36-36,36
					c-7.642,0-14.723-2.388-20.551-6.448C165.953,128.887,176.76,135,189,135c19.882,0,36-16.117,36-36
					C225,86.761,218.886,75.953,209.551,69.449"/>
			</g>
		</g>
		<g class="st7">
			<g>
				<defs>
					<rect id="SVGID_3_" x="249.449" y="159.449" width="65.551" height="65.551"/>
				</defs>
				<clipPath id="SVGID_4_">
					<use xlink:href="#SVGID_3_"  style="overflow:visible;"/>
				</clipPath>
				<path class="st9" d="M299.551,159.449C303.612,165.277,306,172.358,306,180c0,19.883-16.118,36-36,36
					c-7.642,0-14.723-2.388-20.551-6.448C255.953,218.887,266.76,225,279,225c19.882,0,36-16.117,36-36
					C315,176.761,308.886,165.953,299.551,159.449"/>
			</g>
		</g>
		<g class="st7">
			<g>
				<defs>
					<rect id="SVGID_5_" x="159.449" y="249.449" width="65.551" height="65.551"/>
				</defs>
				<clipPath id="SVGID_6_">
					<use xlink:href="#SVGID_5_"  style="overflow:visible;"/>
				</clipPath>
				<path class="st10" d="M209.551,249.449C213.612,255.277,216,262.358,216,270c0,19.883-16.118,36-36,36
					c-7.642,0-14.723-2.388-20.551-6.448C165.953,308.887,176.76,315,189,315c19.882,0,36-16.117,36-36
					C225,266.761,218.886,255.953,209.551,249.449"/>
			</g>
		</g>
		<g class="st7">
			<g>
				<defs>
					<rect id="SVGID_7_" x="69.449" y="159.449" width="65.551" height="65.551"/>
				</defs>
				<clipPath id="SVGID_8_">
					<use xlink:href="#SVGID_7_"  style="overflow:visible;"/>
				</clipPath>
				<path class="st11" d="M119.551,159.449C123.612,165.277,126,172.358,126,180c0,19.883-16.118,36-36,36
					c-7.642,0-14.723-2.388-20.551-6.448C75.953,218.887,86.76,225,99,225c19.882,0,36-16.117,36-36
					C135,176.761,128.886,165.953,119.551,159.449"/>
			</g>
		</g>
	</g>
	<g>
		<rect x="414.639" y="54" class="st2" width="20.754" height="120.112"/>
		<polygon class="st2" points="556.115,174.29 559.768,174.29 559.768,54 539.014,54 539.014,121.508 539.014,126.486 
			535.517,122.944 467.454,54 462.544,54 462.544,174.29 483.297,174.29 483.297,103.766 483.297,98.7 486.812,102.349 		"/>
		<path class="st2" d="M675.248,137.598l0.012-0.03l0.013-0.029c3.181-7.2,4.794-15.1,4.794-23.481
			c0-8.265-1.613-16.105-4.794-23.306l-0.013-0.028l-0.012-0.03c-2.898-7.161-7.104-13.438-12.858-19.193
			c-5.466-5.467-11.877-9.798-19.054-12.874C636.009,55.559,628.157,54,620.011,54h-33.087v120.112h8.069h2.044v0.178h22.974
			c8.264,0,16.105-1.612,23.304-4.794l0.029-0.013l0.03-0.012c6.866-2.78,13.264-7.106,19.016-12.858
			C668.035,151.139,672.354,144.748,675.248,137.598 M620.011,153.536H609.72h-2.043v-2.043V76.798v-2.044h2.043h10.291
			c21.671,0,39.302,17.632,39.302,39.303C659.314,135.825,641.682,153.536,620.011,153.536"/>
		<rect x="696.578" y="54" class="st2" width="20.754" height="120.112"/>
		<rect x="744.483" y="53.999" class="st2" width="78.771" height="20.755"/>
		<polygon class="st2" points="765.53,124.702 765.53,122.659 767.573,122.659 809.061,122.659 809.061,101.905 744.484,101.905 
			744.484,174.29 822.723,174.29 822.723,153.536 767.573,153.536 765.53,153.536 765.53,151.493 		"/>
		<path class="st2" d="M476.957,313.789c6.72-6.699,10.422-15.652,10.422-25.212c0-11.145-5.076-21.417-13.925-28.185l-1.553-1.187
			l1.118-1.604c3.995-5.732,6.021-12.203,6.021-19.235c0-18.929-15.401-34.329-34.33-34.329h-31.845v69.013h38.587
			c9.541,0,17.302,7.683,17.302,17.124c0,9.345-7.761,16.947-17.302,16.947h-6.473v17.028h6.828
			C461.323,324.149,470.254,320.469,476.957,313.789 M443.645,253.184h-10.824h-2.043v-2.043v-28.388v-2.043h2.043h10.824
			c7.894,0,16.415,6.14,16.415,16.059C460.061,246.588,451.573,253.184,443.645,253.184"/>
		<path class="st2" d="M594.456,324.326L571.138,274l-0.866-1.871l1.879-0.85c12.527-5.663,20.622-18.234,20.622-32.026
			c0-19.517-15.798-35.394-35.217-35.394h-46.572v120.289h20.754v-97.493v-2.043h2.043h23.775c7.975,0,14.463,6.568,14.463,14.641
			c0,8.11-6.353,14.464-14.463,14.464h-7.538v22.344l22.501,48.266H594.456z"/>
		<rect x="616.381" y="204.036" class="st2" width="20.753" height="120.112"/>
		<path class="st2" d="M678.49,308.012c11.594,11.728,27.192,18.277,43.922,18.443h0.157c15.924,0,30.808-6.331,41.911-17.828
			c11.472-11.879,17.79-28.324,17.79-46.309v-10.554h-47.545v20.753h25.991h2.685l-0.716,2.588
			c-4.989,18.037-21.86,31.129-40.116,31.129c-11.03,0-21.442-4.44-29.317-12.503c-7.658-7.845-11.944-18.596-11.759-29.496
			c0-10.998,4.377-21.347,12.326-29.106c7.804-7.805,18.21-12.113,29.283-12.113h0.354c7.985,0.178,15.222,2.31,21.576,6.346
			l15.065-14.767c-10.613-7.918-23.174-12.174-36.475-12.332h-0.52c-16.54,0-32.121,6.398-43.874,18.017
			c-11.757,11.623-18.323,27.127-18.489,43.657C660.573,280.611,666.878,296.265,678.49,308.012"/>
		<polygon class="st2" points="852.172,246.137 853.947,249.917 888.881,324.326 911.86,324.326 855.061,204.036 850.333,204.036 
			789.073,324.326 812.344,324.326 850.277,249.858 		"/>
		<rect x="1044.532" y="204.036" class="st2" width="78.771" height="20.754"/>
		<polygon class="st2" points="1065.579,274.738 1065.579,272.695 1067.622,272.695 1109.109,272.695 1109.109,251.941 
			1044.531,251.941 1044.531,324.326 1122.771,324.326 1122.771,303.572 1067.622,303.572 1065.579,303.572 1065.579,301.529 		"/>
		<path class="st2" d="M1016.104,287.634l0.012-0.03l0.013-0.028c3.181-7.2,4.794-15.101,4.794-23.482
			c0-8.264-1.613-16.105-4.794-23.305l-0.013-0.029l-0.012-0.03c-2.898-7.161-7.104-13.438-12.857-19.192
			c-5.467-5.468-11.878-9.798-19.055-12.874c-7.326-3.067-15.179-4.625-23.325-4.625H927.78v120.111h8.07h2.043v0.179h22.974
			c8.265,0,16.105-1.613,23.304-4.794l0.029-0.014l0.03-0.012c6.866-2.78,13.264-7.106,19.017-12.858
			C1008.892,301.175,1013.21,294.785,1016.104,287.634 M960.867,303.572h-10.291h-2.043v-2.043v-74.695v-2.044h2.043h10.291
			c21.671,0,39.302,17.632,39.302,39.303C1000.169,285.861,982.538,303.572,960.867,303.572"/>
	</g>
</g>
<g>
</g>
<g>
</g>
<g>
</g>
<g>
</g>
<g>
</g>
<g>
</g>
</svg>
